<svg xmlns="http://www.w3.org/2000/svg" viewBox="0 0 394.08 465.39"><defs><style>.cls-1{fill:#cd3639;}.cls-2{fill:#af2e36;}.cls-3{fill:#fff;}</style></defs><title>Asset 1</title><g id="Layer_2" data-name="Layer 2"><g id="Layer_1-2" data-name="Layer 1"><path class="cls-1" d="M96.07,65s-10.43,52.44-55.22,78.14c0,0,13.13,164.25,156.19,273.2V41.23S143.81,59.48,96.07,65Z"/><path class="cls-2" d="M298,65c-47.74-5.55-101-23.8-101-23.8V416.37c143-108.95,156.19-273.2,156.19-273.2C308.43,117.47,298,65,298,65Z"/><path class="cls-3" d="M233.73,260.51V208.45a2.23,2.23,0,0,0-3.22-2l-7.23,3.62a2.22,2.22,0,0,0-1.23,2v61.52c0,11.2-2.83,22.58-5,27.3C226.41,292.57,233.73,278.21,233.73,260.51Z"/><path class="cls-3" d="M241.07,201.18a2.21,2.21,0,0,0-1.23,2v57.35a63.7,63.7,0,0,1-11,36.17,47,47,0,0,1-13.38,13c2.52-.19,7.65-2,10.54-3.35,4.35-2,11-6.78,16.57-12.66,10-10.6,19.46-26.58,19.46-47.2V194.26a2.22,2.22,0,0,0-3.22-2Z"/><path class="cls-3" d="M251.08,309c-.06.07-13.19,13.18-32.21,13.18C197,322.22,172,312.46,172,274V212.07a2.22,2.22,0,0,0-1.23-2l-35.58-17.8a2.22,2.22,0,0,0-3.22,2V274a70,70,0,0,0,70,70S235.3,345.85,251.08,309Z"/><path class="cls-3" d="M114,157.79l1.77,6.61-23,6.2-9-33.36,7.73-2.08,7.2,26.75Z"/><path class="cls-3" d="M130.11,133.8l1,6.53,14.24-2.17,1,6.77-14.24,2.16,1.11,7.34L149.5,152l1,6.76-24.17,3.67-5.18-34.15,24.17-3.67,1,6.77Z"/><path class="cls-3" d="M182.26,148.61l-12.59.64-2.07,8-8.19.41,9.4-35.05,11.68-.59L193.32,156l-8.19.42Zm-2.42-6.67L175,128.68l-3.49,13.68Z"/><path class="cls-3" d="M216.13,136.84l15.7.67-.5,11.69c-.25,5.72-3.33,8.45-9.29,8.19l-10.42-.45c-5.92-.25-8.75-3.24-8.5-9l.78-18.23q.38-8.64,9.25-8.24l10.42.45q8.94.38,8.55,9a2,2,0,0,1-.08.63l-8,.63,0-.34c.09-2.23-.7-3-3.12-3.15l-5.72-.24c-2.43-.11-3.28.63-3.38,2.91L211.17,147c-.1,2.27.69,3.09,3.12,3.19l5.72.25c2.42.1,3.28-.64,3.38-2.87l.15-3.59-7.71-.33Z"/><path class="cls-3" d="M269.51,153.93c-.8,5.72-4.13,8.14-10,7.31l-9.75-1.36c-5.86-.82-8.4-4.06-7.6-9.78L245.77,124l7.93,1.11L250.22,150c-.31,2.26.4,3.14,2.8,3.48l5.09.71c2.4.33,3.33-.32,3.65-2.58l3.47-24.89,7.93,1.11Z"/><path class="cls-3" d="M293.11,139.15l-1.62,6.4,14,3.53-1.67,6.64-14-3.53L288,159.38l15.94,4L302.27,170l-23.71-6L287,130.56l23.71,6-1.68,6.63Z"/><path class="cls-1" d="M372.64,109.34c-28.15-16.15-36.32-51.57-36.38-51.92l-5.54-27.85-28.21-3.28c-43.07-5-92.33-21.78-92.82-21.95L197,0,184.41,4.33c-.5.17-50,17-92.84,22L62.82,29.64l-5,27.61c-.63,2.67-9.09,36.42-36.41,52.09L0,121.64l2,24.64c.15,1.91,4,47.41,27,106.71a462.2,462.2,0,0,0,51.33,97,432.11,432.11,0,0,0,93.15,97.43l23.63,18,23.63-18A432.55,432.55,0,0,0,313.82,350a463.13,463.13,0,0,0,51.33-97c23-59.3,26.8-104.8,27-106.71l2-24.64Zm1.52,35.51c-.14,1.8-3.78,44.76-25.8,101.64A444.22,444.22,0,0,1,299,339.7a414.4,414.4,0,0,1-89.28,93.38L197,442.77l-12.73-9.69A414.57,414.57,0,0,1,95,339.7a444.25,444.25,0,0,1-49.33-93.21c-22-56.88-25.65-99.84-25.8-101.65l-1.06-13.26L30.4,125c35.1-20.14,44.72-62.42,45.09-64.07L78.31,46l15.34-1.79c44.84-5.21,96.07-22.63,96.58-22.81h0L197,19l6.81,2.33c.51.18,51.61,17.58,96.58,22.81l15.3,1.6,2.86,15.12c.36,1.64,10,43.93,45.09,64.07l11.55,6.62Z"/></g></g></svg>